<svg width="18" height="161" viewBox="0 0 18 161" fill="none" xmlns="http://www.w3.org/2000/svg">
<line opacity="0.2" x1="9.64165" y1="0.144043" x2="9.64165" y2="56.9825" stroke="white" stroke-width="1.10703"/>
<path d="M5.60277 83.0495C6.63484 83.0495 7.34115 82.6603 7.72169 81.8819C8.108 81.0978 8.30115 80.2271 8.30115 79.27C8.30115 78.4052 8.16277 77.7017 7.88602 77.1597C7.44782 76.3064 6.6925 75.8797 5.62006 75.8797C4.66871 75.8797 3.97682 76.243 3.54439 76.9695C3.11195 77.696 2.89574 78.5724 2.89574 79.5987C2.89574 80.5846 3.11195 81.4062 3.54439 82.0635C3.97682 82.7208 4.66295 83.0495 5.60277 83.0495ZM5.66331 74.5219C6.85682 74.5219 7.86583 74.9197 8.69034 75.7154C9.51485 76.5111 9.9271 77.6816 9.9271 79.2268C9.9271 80.7201 9.56386 81.954 8.83737 82.9284C8.11088 83.9028 6.98367 84.39 5.45574 84.39C4.1815 84.39 3.16961 83.9605 2.42006 83.1014C1.67051 82.2365 1.29573 81.0776 1.29573 79.6246C1.29573 78.0679 1.69069 76.8282 2.4806 75.9057C3.27051 74.9832 4.33141 74.5219 5.66331 74.5219ZM11.8298 74.79H13.3087V76.39C13.4298 76.0787 13.7267 75.701 14.1995 75.257C14.6723 74.8073 15.2172 74.5824 15.8341 74.5824C15.863 74.5824 15.912 74.5853 15.9812 74.5911C16.0504 74.5969 16.1686 74.6084 16.3358 74.6257V76.2689C16.2435 76.2516 16.157 76.2401 16.0763 76.2343C16.0013 76.2286 15.9177 76.2257 15.8255 76.2257C15.0413 76.2257 14.4388 76.4794 14.0179 76.9868C13.597 77.4884 13.3866 78.0679 13.3866 78.7252V84.0527H11.8298V74.79Z" fill="white"/>
<line opacity="0.2" x1="9.64165" y1="101.698" x2="9.64165" y2="158.537" stroke="white" stroke-width="1.10703"/>
</svg>
