<svg width="174" height="27" viewBox="0 0 174 27" fill="none" xmlns="http://www.w3.org/2000/svg">
<g clip-path="url(#clip0_1_3959)">
<path d="M25.3176 0.163086H2.58119C1.52288 0.163086 0.665039 1.02093 0.665039 2.07924V24.8156C0.665039 25.8739 1.52288 26.7318 2.58119 26.7318H14.8575V16.4572H11.4067V12.4355H14.8575V9.47587C14.8575 6.0437 16.9528 4.17559 20.0145 4.17559C21.4808 4.17559 22.741 4.28485 23.1083 4.3337V7.92094H20.9972C19.3314 7.92094 19.0089 8.71249 19.0089 9.87419V12.4355H22.9916L22.4726 16.4572H19.0089V26.7318H25.3176C26.3759 26.7318 27.2337 25.8739 27.2337 24.8156V2.07924C27.2337 1.02093 26.3759 0.163086 25.3176 0.163086V0.163086Z" fill="#808080"/>
</g>
<g clip-path="url(#clip1_1_3959)">
<path d="M74.941 1.16649C74.2721 0.497454 73.4706 0.163086 72.5368 0.163086H52.7831C51.849 0.163086 51.0477 0.497576 50.3786 1.16649C49.7097 1.83523 49.3753 2.63665 49.3753 3.57057V23.3241C49.3753 24.2579 49.7096 25.0595 50.3786 25.7283C51.0477 26.3972 51.8491 26.7318 52.7831 26.7318H72.5366C73.4702 26.7318 74.2719 26.3972 74.9408 25.7283C75.6098 25.0595 75.9439 24.2579 75.9439 23.3241V3.57057C75.9439 2.63647 75.6098 1.83547 74.941 1.16649ZM58.9151 9.73703C59.9586 8.72817 61.2127 8.22349 62.6773 8.22349C64.1531 8.22349 65.4128 8.72817 66.4566 9.73703C67.5004 10.7461 68.0219 11.9656 68.0219 13.3955C68.0219 14.8252 67.5004 16.0448 66.4566 17.0536C65.4128 18.0629 64.1535 18.5675 62.6773 18.5675C61.2128 18.5675 59.9588 18.0624 58.9151 17.0536C57.8713 16.0447 57.3495 14.8252 57.3495 13.3955C57.3495 11.9656 57.8713 10.7461 58.9151 9.73703ZM72.9347 22.6152C72.9347 22.9148 72.8306 23.1655 72.6232 23.3674C72.4152 23.5692 72.1676 23.6701 71.8791 23.6701H53.3885C53.0888 23.6701 52.8378 23.5692 52.6361 23.3674C52.4342 23.1659 52.3333 22.9148 52.3333 22.6152V11.4061H54.7722C54.5417 12.1327 54.4264 12.8882 54.4264 13.6721C54.4264 15.8867 55.2335 17.7747 56.8479 19.3375C58.4625 20.8998 60.4055 21.6812 62.6772 21.6812C64.1763 21.6812 65.56 21.3236 66.8289 20.6087C68.0974 19.8934 69.1 18.9221 69.8385 17.6938C70.5766 16.4657 70.9457 15.125 70.9457 13.6722C70.9457 12.8882 70.8299 12.133 70.5994 11.4062H72.9348V22.6153H72.9347V22.6152ZM72.9347 7.16829C72.9347 7.50272 72.8194 7.78528 72.5884 8.01587C72.3578 8.24664 72.0754 8.36187 71.7408 8.36187H68.7312C68.397 8.36187 68.1141 8.24658 67.8836 8.01587C67.653 7.78528 67.5378 7.50272 67.5378 7.16829V4.31449C67.5378 3.99157 67.653 3.71197 67.8836 3.47551C68.1142 3.23917 68.397 3.12085 68.7312 3.12085H71.7408C72.0754 3.12085 72.3579 3.23911 72.5884 3.47551C72.8193 3.71197 72.9347 3.99157 72.9347 4.31449V7.16829Z" fill="#808080"/>
</g>
<g clip-path="url(#clip2_1_3959)">
<path d="M124.652 5.20939C123.664 5.64279 122.612 5.93006 121.514 6.06955C122.643 5.39537 123.505 4.33594 123.91 3.05898C122.857 3.68667 121.695 4.13003 120.456 4.37745C119.456 3.31304 118.032 2.65381 116.477 2.65381C113.462 2.65381 111.034 5.10145 111.034 8.10205C111.034 8.53379 111.071 8.94893 111.16 9.34414C106.632 9.12329 102.625 6.95296 99.9335 3.64681C99.4635 4.46214 99.1879 5.39537 99.1879 6.39999C99.1879 8.28637 100.159 9.95854 101.607 10.9266C100.732 10.91 99.8737 10.656 99.1464 10.2558C99.1464 10.2724 99.1464 10.294 99.1464 10.3156C99.1464 12.9625 101.034 15.161 103.51 15.6675C103.067 15.7887 102.584 15.8468 102.082 15.8468C101.733 15.8468 101.381 15.8269 101.051 15.7538C101.757 17.9109 103.759 19.4967 106.141 19.5482C104.287 20.9978 101.934 21.8713 99.3871 21.8713C98.9405 21.8713 98.512 21.8514 98.0836 21.7966C100.496 23.3525 103.356 24.2409 106.439 24.2409C116.463 24.2409 121.942 15.9382 121.942 8.74136C121.942 8.50058 121.934 8.26811 121.922 8.03729C123.003 7.27012 123.912 6.31199 124.652 5.20939Z" fill="#808080"/>
</g>
<g clip-path="url(#clip3_1_3959)">
<path d="M172.232 6.07463C171.512 4.79269 170.73 4.55689 169.137 4.46722C167.546 4.35929 163.546 4.31445 160.081 4.31445C156.608 4.31445 152.606 4.35929 151.017 4.46556C149.428 4.55689 148.644 4.79103 147.917 6.07463C147.175 7.35491 146.793 9.56011 146.793 13.4425C146.793 13.4458 146.793 13.4474 146.793 13.4474C146.793 13.4508 146.793 13.4524 146.793 13.4524V13.4557C146.793 17.3215 147.175 19.5433 147.917 20.8103C148.644 22.0922 149.426 22.3247 151.016 22.4326C152.606 22.5256 156.608 22.5804 160.081 22.5804C163.546 22.5804 167.546 22.5256 169.139 22.4343C170.731 22.3264 171.513 22.0939 172.234 20.812C172.983 19.545 173.362 17.3232 173.362 13.4574C173.362 13.4574 173.362 13.4524 173.362 13.4491C173.362 13.4491 173.362 13.4458 173.362 13.4441C173.362 9.56011 172.983 7.35491 172.232 6.07463ZM156.756 18.4291V8.46581L165.059 13.4474L156.756 18.4291Z" fill="#808080"/>
</g>
<defs>
<clipPath id="clip0_1_3959">
<rect width="26.5687" height="26.5687" fill="white" transform="translate(0.665039 0.163086)"/>
</clipPath>
<clipPath id="clip1_1_3959">
<rect width="26.5687" height="26.5687" fill="white" transform="translate(49.3743 0.163086)"/>
</clipPath>
<clipPath id="clip2_1_3959">
<rect width="26.5687" height="26.5687" fill="white" transform="translate(98.0836 0.163086)"/>
</clipPath>
<clipPath id="clip3_1_3959">
<rect width="26.5687" height="26.5687" fill="white" transform="translate(146.793 0.163086)"/>
</clipPath>
</defs>
</svg>
