<svg width="83" height="27" viewBox="0 0 83 27" fill="none" xmlns="http://www.w3.org/2000/svg">
<path d="M10.9661 22.9764V26.6608L8.63095 26.7473C6.30158 26.828 4.71022 26.4244 3.85689 25.5364C3.30337 24.9714 3.02662 24.1008 3.02662 22.9245V11.318H0.397424V7.80668H3.02662V2.54829H7.90446V7.80668H10.9661V11.318H7.90446V21.2813C7.90446 22.0539 8.00248 22.5382 8.19852 22.7343C8.39456 22.9188 8.9942 23.011 9.99744 23.011C10.1474 23.011 10.303 23.011 10.4645 23.011C10.6374 22.9995 10.8047 22.988 10.9661 22.9764ZM23.6104 12.1829C21.627 12.1829 20.2951 12.8287 19.6148 14.1202C19.2342 14.8467 19.0439 15.9653 19.0439 17.4759V26.4878H14.0796V7.6337H18.7845V10.9202C19.5456 9.66326 20.2086 8.80416 20.7737 8.34289C21.6962 7.57028 22.8955 7.18397 24.3715 7.18397C24.4638 7.18397 24.5387 7.18974 24.5964 7.20127C24.6656 7.20127 24.8097 7.20704 25.0288 7.21857V12.2694C24.7175 12.2348 24.4407 12.2117 24.1985 12.2002C23.9564 12.1887 23.7603 12.1829 23.6104 12.1829ZM44.7305 26.4878H38.5899L35.338 20.8316L32.0688 26.4878H26.084L32.5186 16.9397L26.3607 7.6683H32.3975L35.5456 13.1343L38.6245 7.6683H44.4883L38.2959 16.8532L44.7305 26.4878ZM45.8029 7.6337H51.3381L55.2646 21.5408L59.2775 7.6337H64.5705L57.7727 26.4878H52.5662L45.8029 7.6337ZM67.4765 0.991529H72.4062V26.4878H67.4765V0.991529ZM77.1457 21.3332H82.3868V26.4878H77.1457V21.3332Z" fill="white"/>
</svg>
