<svg width="27" height="28" viewBox="0 0 27 28" fill="none" xmlns="http://www.w3.org/2000/svg">
<g opacity="0.5">
<path d="M19.9646 11.7709L16.6435 13.4315L12.2154 10.1104L11.1084 16.199L14.983 19.5201L15.5365 24.5018M19.9646 10.1104V24.5018M11.1084 19.5201L8.89433 24.5018M9.44784 10.1104C7.7873 11.2174 6.68027 13.985 6.68027 13.985L8.89433 15.092M13.3224 7.89631C13.9096 7.89631 14.4728 7.66304 14.888 7.24783C15.3032 6.83261 15.5365 6.26946 15.5365 5.68225C15.5365 5.09505 15.3032 4.53189 14.888 4.11668C14.4728 3.70146 13.9096 3.46819 13.3224 3.46819C12.7352 3.46819 12.1721 3.70146 11.7569 4.11668C11.3417 4.53189 11.1084 5.09505 11.1084 5.68225C11.1084 6.26946 11.3417 6.83261 11.7569 7.24783C12.1721 7.66304 12.7352 7.89631 13.3224 7.89631Z" stroke="black" stroke-width="2.21406" stroke-linecap="round" stroke-linejoin="round"/>
</g>
</svg>
