<svg width="24" height="25" viewBox="0 0 24 25" fill="none" xmlns="http://www.w3.org/2000/svg">
<path d="M20.8295 16.8934L22.2667 17.3425V15.8368V13.9109V13.2973L21.7464 12.9721L14.5631 8.48254V3.79987C14.5631 2.38922 13.4223 1.24841 12.0117 1.24841C10.601 1.24841 9.46021 2.38922 9.46021 3.79987V8.48254L2.27689 12.9721L1.75659 13.2973V13.9109V15.8368V17.3425L3.19382 16.8934L9.46021 14.9352V18.1721L7.97711 19.2844L7.5343 19.6165V20.1701V21.6145V23.0821L8.94546 22.6789L12.0117 21.8029L15.0779 22.6789L16.489 23.0821V21.6145V20.1701V19.6165L16.0462 19.2844L14.5631 18.1721V14.9352L20.8295 16.8934Z" fill="white" stroke="black" stroke-width="2.21406"/>
</svg>
