<svg width="24" height="20" viewBox="0 0 24 20" fill="none" xmlns="http://www.w3.org/2000/svg">
<path d="M23.0428 19.9482H0.902252V17.7342H2.00928V1.12873C2.00928 0.835132 2.12591 0.553555 2.33352 0.345947C2.54113 0.138339 2.82271 0.0217056 3.11631 0.0217056H18.6147C18.9083 0.0217056 19.1899 0.138339 19.3975 0.345947C19.6051 0.553555 19.7217 0.835132 19.7217 1.12873V6.66388H21.9358V17.7342H23.0428V19.9482ZM17.5077 17.7342H19.7217V8.87794H13.0796V17.7342H15.2936V11.092H17.5077V17.7342ZM17.5077 6.66388V2.23576H4.22334V17.7342H10.8655V6.66388H17.5077ZM6.4374 8.87794H8.65146V11.092H6.4374V8.87794ZM6.4374 13.3061H8.65146V15.5201H6.4374V13.3061ZM6.4374 4.44982H8.65146V6.66388H6.4374V4.44982Z" fill="black"/>
</svg>
