<svg width="23" height="22" viewBox="0 0 23 22" fill="none" xmlns="http://www.w3.org/2000/svg">
<path d="M21.67 8.15287L15.0823 7.19547L12.1375 1.22529C12.057 1.06183 11.9247 0.929507 11.7612 0.849074C11.3513 0.646696 10.8531 0.815345 10.6482 1.22529L7.70329 7.19547L1.1156 8.15287C0.933982 8.17882 0.767927 8.26444 0.640792 8.39417C0.487092 8.55215 0.402397 8.76468 0.405316 8.98507C0.408235 9.20546 0.49853 9.41567 0.65636 9.56952L5.42264 14.2165L4.29658 20.7782C4.27018 20.9308 4.28707 21.0878 4.34534 21.2313C4.40361 21.3749 4.50094 21.4992 4.62628 21.5902C4.75161 21.6813 4.89995 21.7354 5.05446 21.7464C5.20898 21.7574 5.36349 21.7249 5.50048 21.6526L11.3928 18.5546L17.2851 21.6526C17.446 21.7382 17.6328 21.7667 17.8119 21.7356C18.2633 21.6578 18.5669 21.2297 18.489 20.7782L17.363 14.2165L22.1293 9.56952C22.259 9.44239 22.3446 9.27633 22.3706 9.09471C22.4406 8.64066 22.1241 8.22033 21.67 8.15287Z" fill="black"/>
</svg>
