<svg width="27" height="19" viewBox="0 0 27 19" fill="none" xmlns="http://www.w3.org/2000/svg">
<path d="M24.7783 7.2799L20.0939 6.55819L17.2392 1.89465C17.0893 1.65056 16.879 1.44927 16.6286 1.31026C16.3781 1.17125 16.0961 1.09923 15.8097 1.10117L3.84555 1.1965C3.50034 1.19941 3.16462 1.30979 2.88502 1.51228C2.60543 1.71477 2.39585 1.99932 2.28541 2.3264L0.925842 6.35794V15.6271H3.78021C4.00211 16.3484 4.4494 16.9796 5.05643 17.4279C5.66345 17.8763 6.39823 18.1182 7.15288 18.1182C7.90754 18.1182 8.64231 17.8763 9.24934 17.4279C9.85636 16.9796 10.3037 16.3484 10.5255 15.6271H15.8192C16.0411 16.3484 16.4883 16.9796 17.0954 17.4279C17.7024 17.8763 18.4372 18.1182 19.1918 18.1182C19.9465 18.1182 20.6813 17.8763 21.2883 17.4279C21.8953 16.9796 22.3426 16.3484 22.5645 15.6271H25.834V8.51078C25.8354 8.21298 25.7294 7.92466 25.5355 7.69861C25.3417 7.47256 25.0728 7.32392 24.7783 7.2799ZM11.7194 2.79425L15.8229 2.76156L18.1113 6.50022L11.7194 6.49799V2.79425ZM3.85883 2.85694L10.0588 2.80754V6.49742L2.6321 6.49477L3.85883 2.85694ZM7.15288 16.4574C6.7834 16.4574 6.42222 16.3478 6.11501 16.1426C5.80781 15.9373 5.56836 15.6455 5.42697 15.3042C5.28558 14.9628 5.24858 14.5872 5.32066 14.2249C5.39275 13.8625 5.57067 13.5296 5.83193 13.2683C6.09319 13.0071 6.42605 12.8292 6.78843 12.7571C7.15081 12.685 7.52642 12.722 7.86778 12.8634C8.20913 13.0048 8.50089 13.2442 8.70616 13.5514C8.91143 13.8586 9.02099 14.2198 9.02099 14.5893C9.02044 15.0846 8.82345 15.5594 8.47323 15.9096C8.12301 16.2599 7.64817 16.4569 7.15288 16.4574ZM19.1918 16.4574C18.8223 16.4574 18.4612 16.3478 18.154 16.1426C17.8467 15.9373 17.6073 15.6455 17.4659 15.3042C17.3245 14.9628 17.2875 14.5872 17.3596 14.2249C17.4317 13.8625 17.6096 13.5296 17.8709 13.2683C18.1321 13.0071 18.465 12.8292 18.8274 12.7571C19.1898 12.685 19.5654 12.722 19.9067 12.8634C20.2481 13.0048 20.5398 13.2442 20.7451 13.5514C20.9504 13.8586 21.0599 14.2198 21.0599 14.5893C21.0594 15.0846 20.8624 15.5594 20.5122 15.9096C20.162 16.2599 19.6871 16.4569 19.1918 16.4574ZM24.1735 13.9666H22.6643C22.5184 13.1518 22.0907 12.4142 21.4559 11.8829C20.821 11.3517 20.0196 11.0606 19.1918 11.0606C18.364 11.0606 17.5626 11.3517 16.9278 11.8829C16.293 12.4142 15.8652 13.1518 15.7193 13.9666H10.6254C10.4795 13.1518 10.0517 12.4142 9.41691 11.8829C8.78209 11.3517 7.98067 11.0606 7.15288 11.0606C6.3251 11.0606 5.52367 11.3517 4.88885 11.8829C4.25403 12.4142 3.82625 13.1518 3.68037 13.9666H2.58639V8.15604L19.738 8.1835L24.1735 8.86686V13.9666Z" fill="black" stroke="black" stroke-width="0.553515"/>
</svg>
