<svg width="17" height="24" viewBox="0 0 17 24" fill="none" xmlns="http://www.w3.org/2000/svg">
<path d="M14.9646 9.77091L11.6435 11.4315L7.21541 8.11037L6.10838 14.199L9.98299 17.5201L10.5365 22.5018M14.9646 8.11037V22.5018M6.10838 17.5201L3.89433 22.5018M4.44784 8.11037C2.7873 9.2174 1.68027 11.985 1.68027 11.985L3.89433 13.092M8.32244 5.89631C8.90965 5.89631 9.4728 5.66304 9.88802 5.24783C10.3032 4.83261 10.5365 4.26946 10.5365 3.68225C10.5365 3.09505 10.3032 2.53189 9.88802 2.11668C9.4728 1.70146 8.90965 1.46819 8.32244 1.46819C7.73524 1.46819 7.17208 1.70146 6.75687 2.11668C6.34165 2.53189 6.10838 3.09505 6.10838 3.68225C6.10838 4.26946 6.34165 4.83261 6.75687 5.24783C7.17208 5.66304 7.73524 5.89631 8.32244 5.89631Z" stroke="black" stroke-width="2.21406" stroke-linecap="round" stroke-linejoin="round"/>
</svg>
